<svg xmlns="http://www.w3.org/2000/svg" version="1.1" xmlns:xlink="http://www.w3.org/1999/xlink" width="512" height="512" x="0" y="0" viewBox="0 0 512 512" style="enable-background:new 0 0 512 512" xml:space="preserve" class=""><g><path d="M240.567 217.636v213.882h-80.756c-24.797 0-44.97 20.173-44.97 44.97v5.532H83.818V512h343.771v-29.98h-32.455v-5.532c0-24.797-20.173-44.97-44.97-44.97h-79.616V217.871c-4.594.519-9.26.795-13.991.795a124.28 124.28 0 0 1-15.99-1.03z" fill="#fff" opacity="1" data-original="#fff" class=""></path><path d="M105.649 130.559v-24.983h-29.98v24.983H49.695v29.98h18.217L.297 302.448v3.389c0 49.436 40.219 89.655 89.656 89.655 49.436 0 89.655-40.219 89.655-89.655v-3.251L114.952 160.54h36.689a123.29 123.29 0 0 1-13.656-29.98h-32.336zM33.86 301.623 91.348 181.05l55.755 120.573zM447.047 160.539h14.373v-29.98h-22.94v-25.314H408.5v25.314h-33.372a123.253 123.253 0 0 1-13.656 29.98h38.534l-67.615 141.909v3.389c0 49.436 40.219 89.655 89.656 89.655 49.436 0 89.655-40.219 89.655-89.655v-3.251zm-80.59 142.507 56.986-121.996 55.201 121.865zM351.39 94.833C351.39 42.542 308.848 0 256.557 0s-94.833 42.542-94.833 94.833 42.542 94.833 94.833 94.833 94.833-42.542 94.833-94.833zm-85.73 39.902v12.338h-15.672v-11.782c-11.115-.667-21.896-3.668-28.564-7.781l8.447-19.117c7.336 4.334 17.116 7.113 25.675 7.113 7.447 0 10.114-1.556 10.114-4.224 0-9.781-43.014-1.889-43.014-30.899 0-12.559 9.114-23.118 27.342-25.675V42.594h15.672v11.893c8.225.778 16.227 2.89 22.563 6.446l-7.891 19.006c-7.67-3.89-14.894-5.78-21.674-5.78-7.67 0-10.114 2.223-10.114 4.891 0 9.336 43.014 1.556 43.014 30.232 0 12.004-8.67 22.452-25.898 25.453z" fill="#fff" opacity="1" data-original="#fff" class=""></path></g></svg>
